<svg width="88" height="48" viewBox="0 0 88 48" fill="none" xmlns="http://www.w3.org/2000/svg">
<path d="M64.6206 38.2775C64.0376 37.5675 63.6862 36.6972 63.6135 35.783C63.5408 34.8687 63.7501 33.9542 64.2136 33.1616C64.8546 32.1131 65.5261 31.09 66.2485 30.082C68.1461 27.3873 71.5546 26.82 73.5285 28.6029C75.5024 30.3859 75.6601 33.4352 74.1491 35.598C73.5658 36.4321 73.0079 37.2847 72.4754 38.156C71.5037 39.7566 69.5756 40.1061 68.1512 40.0453C67.8111 40.0434 67.4786 40.1446 67.1977 40.3355C66.9169 40.5264 66.7012 40.798 66.5792 41.1141C66.4317 41.4737 66.2892 41.8384 66.1519 42.2031L81.2001 42.1575C81.2001 41.96 81.2001 41.7574 81.2001 41.5547C80.9691 31.6009 76.8075 22.1387 69.6173 15.2192C62.427 8.29959 52.7876 4.48018 42.7883 4.5888C32.789 4.69742 23.2355 8.72532 16.1986 15.7994C9.16176 22.8736 5.20846 32.4239 5.19562 42.3804L33.3946 42.2993C33.5269 41.8485 33.6693 41.4129 33.8118 40.9722C34.9773 37.4315 36.4075 33.9825 38.0902 30.6543C38.5989 29.6413 38.716 28.4814 38.3395 27.7621C37.6171 26.3843 37.2101 23.8923 38.8482 21.2229C40.9637 17.753 43.3449 14.4508 45.9705 11.3456C46.1562 11.1211 46.396 10.9468 46.6674 10.8391C46.7702 10.7906 46.8852 10.7739 46.9977 10.7911C47.1101 10.8082 47.2148 10.8585 47.2983 10.9354C47.5475 11.2089 47.3898 11.8015 46.993 12.2726C45.0064 14.6168 43.1631 17.0779 41.4733 19.6425C41.3127 19.875 41.2179 20.1461 41.1986 20.4276C41.1875 20.5222 41.2003 20.6181 41.2358 20.7066C41.2713 20.795 41.3285 20.8733 41.4021 20.9342C41.7175 21.1823 42.3025 20.8734 42.6586 20.3263C44.3179 17.81 46.1289 15.3962 48.0817 13.0982C48.2585 12.8823 48.4905 12.7178 48.7532 12.6221C48.8437 12.5824 48.9428 12.5657 49.0414 12.5737C49.14 12.5817 49.235 12.614 49.3179 12.6677C49.6384 12.9007 49.5112 13.544 49.0992 14.0302C47.1846 16.2859 45.4076 18.654 43.7778 21.1216C43.6237 21.3486 43.534 21.6128 43.5184 21.8864C43.5118 21.9841 43.5304 22.0818 43.5722 22.1704C43.614 22.2591 43.6778 22.3356 43.7575 22.3929C43.846 22.4426 43.9459 22.4688 44.0475 22.4688C44.1491 22.4688 44.249 22.4426 44.3374 22.3929C44.5758 22.2792 44.7794 22.1044 44.9276 21.8864C46.5251 19.4579 48.2699 17.1286 50.1522 14.9116C50.5592 14.4051 51.1697 14.2278 51.4495 14.5114C51.5087 14.5803 51.5514 14.6618 51.5743 14.7495C51.5972 14.8373 51.5998 14.9291 51.5818 15.0179C51.5377 15.2806 51.4215 15.5261 51.246 15.7271C49.4001 17.8999 47.6876 20.1817 46.118 22.5601C45.7772 23.0666 45.7619 23.7048 46.118 23.8872C46.203 23.9307 46.2972 23.9534 46.3927 23.9534C46.4883 23.9534 46.5825 23.9307 46.6674 23.8872C46.9023 23.7763 47.1001 23.6005 47.2372 23.3807C48.7766 21.0444 50.4568 18.8031 52.2686 16.6692C52.6298 16.2387 53.169 16.0361 53.4692 16.2488C53.5549 16.3158 53.62 16.4055 53.6569 16.5076C53.6938 16.6098 53.701 16.7202 53.6778 16.8262C53.637 17.081 53.5261 17.3195 53.3573 17.5151C51.0464 20.2367 48.951 23.1326 47.0897 26.1767C46.5593 27.0865 45.8296 27.8656 44.955 28.4558C44.0803 29.046 43.0833 29.4322 42.038 29.5856C41.2444 29.6818 40.4049 30.4365 39.9623 31.4749C38.5595 34.7991 37.4066 38.2225 36.5131 41.7168C36.4674 41.8992 36.4216 42.0714 36.3809 42.2537L49.7503 42.2132C49.9113 41.6749 49.9581 41.1091 49.8877 40.5518C49.5893 39.5658 49.3111 38.5527 49.0534 37.5127C48.964 36.2482 49.2133 34.9827 49.7758 33.8454C50.8905 31.5172 52.1443 29.2574 53.5302 27.0783C54.3993 25.6894 55.5756 24.5165 56.9693 23.6491C58.2563 22.8691 59.5485 22.1295 60.861 21.4761C61.0866 21.3333 61.3505 21.2621 61.6176 21.272C61.8847 21.282 62.1425 21.3726 62.3567 21.5318C62.9112 22.0384 62.8655 22.9856 62.255 23.7454C57.8881 29.268 54.5271 35.51 52.3245 42.1879L63.7659 42.1524C64.0813 41.494 64.4069 40.8456 64.7427 40.2023C64.8994 39.9006 64.9709 39.5621 64.9494 39.2231C64.9279 38.8841 64.8142 38.5572 64.6206 38.2775Z" fill="url(#paint0_linear_2_3248)"/>
<path d="M0.164229 44.9893C0.168262 45.6744 0.444464 46.3302 0.932505 46.8133C1.42055 47.2963 2.08076 47.5675 2.76894 47.5675L32.0007 47.4814C32.3975 45.7355 32.8621 44.01 33.3946 42.3047L2.75367 42.3908C2.4121 42.3915 2.07401 42.4593 1.75882 42.5903C1.44362 42.7214 1.15752 42.9132 0.916939 43.1546C0.676353 43.396 0.486015 43.6824 0.356846 43.9972C0.227677 44.312 0.16222 44.6492 0.164229 44.9893Z" fill="url(#paint1_linear_2_3248)"/>
<path d="M35.2667 47.4716L48.0155 47.4361C48.2801 46.5041 48.5599 45.5772 48.8651 44.6654C49.1042 43.9361 49.3739 43.2117 49.6333 42.4975C49.6634 42.418 49.6888 42.3368 49.7096 42.2544L36.3401 42.2949C35.9281 44.0019 35.572 45.7342 35.2667 47.4716Z" fill="url(#paint2_linear_2_3248)"/>
<path d="M51.3477 45.3794C51.1645 46.0581 50.9915 46.7419 50.8389 47.4055L61.6037 47.3751C62.2287 45.6179 62.947 43.895 63.7556 42.2136L52.3142 42.2491C51.9429 43.2824 51.6325 44.3309 51.3477 45.3794Z" fill="url(#paint3_linear_2_3248)"/>
<path d="M86.9793 42.8972C86.7382 42.6508 86.4492 42.4559 86.1299 42.3244C85.8107 42.1929 85.4679 42.1276 85.1224 42.1323L66.1213 42.188C65.4674 43.8809 64.9103 45.6092 64.4526 47.3647L85.1377 47.3039C85.6521 47.3023 86.1545 47.1487 86.5813 46.8626C87.008 46.5765 87.3399 46.1707 87.5349 45.6967C87.7299 45.2227 87.7793 44.7017 87.6767 44.1998C87.5742 43.6978 87.3244 43.2374 86.9589 42.8769L86.9793 42.8972Z" fill="url(#paint4_linear_2_3248)"/>
<path style="mix-blend-mode:multiply" d="M74.139 35.5983C75.6652 33.4355 75.4973 30.3862 73.5183 28.6033C71.5393 26.8203 68.1359 27.3876 66.2384 30.0823C65.5261 31.0954 64.8546 32.1084 64.2034 33.162C63.74 33.9545 63.5306 34.8691 63.6033 35.7833C63.6761 36.6975 64.0274 37.5678 64.6104 38.2779C64.8101 38.5664 64.9246 38.905 64.9408 39.2551C64.957 39.6052 64.8742 39.9527 64.702 40.2584C64.3662 40.9017 64.0406 41.55 63.7252 42.2085L52.2838 42.2439C54.4911 35.5649 57.8573 29.3229 62.2295 23.8014C62.8299 23.0416 62.8858 22.0742 62.3313 21.5879C62.1171 21.4286 61.8593 21.338 61.5922 21.3281C61.325 21.3181 61.0612 21.3893 60.8356 21.5322C59.5231 22.2008 58.2309 22.9251 56.9438 23.7052C55.5501 24.5725 54.3739 25.7454 53.5048 27.1343C52.1188 29.3135 50.8651 31.5732 49.7504 33.9015C49.1782 35.0378 48.9201 36.3053 49.0025 37.5738C49.2569 38.5868 49.535 39.5999 49.8368 40.6129C49.9072 41.1702 49.8604 41.736 49.6995 42.2743L36.33 42.3149C37.2352 38.6372 38.4258 35.0351 39.8911 31.5411C40.3337 30.528 41.1731 29.748 41.9668 29.6518C43.0121 29.4983 44.0091 29.1122 44.8838 28.5219C45.7584 27.9317 46.4881 27.1527 47.0185 26.2428C48.8798 23.1988 50.9752 20.3029 53.286 17.5813C53.4549 17.3856 53.5658 17.1472 53.6065 16.8924C53.6298 16.7864 53.6226 16.676 53.5857 16.5738C53.5488 16.4717 53.4837 16.382 53.398 16.315C53.0978 16.1022 52.5586 16.315 52.1974 16.7354C50.3856 18.8693 48.7054 21.1105 47.166 23.4468C47.0289 23.6667 46.8311 23.8425 46.5962 23.9534C46.5113 23.9969 46.4171 24.0196 46.3215 24.0196C46.2259 24.0196 46.1318 23.9969 46.0468 23.9534C45.6958 23.771 45.711 23.1429 46.0468 22.6263C47.6312 20.2466 49.359 17.9648 51.2206 15.7933C51.3961 15.5922 51.5123 15.3468 51.5564 15.0841C51.5743 14.9952 51.5718 14.9034 51.5489 14.8157C51.5259 14.7279 51.4833 14.6465 51.4241 14.5776C51.1443 14.2939 50.5338 14.4966 50.1268 14.9778C48.2445 17.1948 46.4997 19.5241 44.9021 21.9526C44.754 22.1705 44.5504 22.3454 44.312 22.4591C44.2235 22.5088 44.1236 22.5349 44.022 22.5349C43.9204 22.5349 43.8206 22.5088 43.7321 22.4591C43.6523 22.4018 43.5886 22.3252 43.5468 22.2366C43.5049 22.148 43.4864 22.0503 43.493 21.9526C43.5086 21.679 43.5982 21.4147 43.7524 21.1877C45.3822 18.7202 47.1592 16.3521 49.0737 14.0964C49.4858 13.5899 49.613 12.9669 49.2925 12.7339C49.2096 12.6801 49.1145 12.6478 49.016 12.6399C48.9174 12.6319 48.8183 12.6485 48.7278 12.6883C48.4651 12.784 48.2331 12.9485 48.0563 13.1644C46.1048 15.4493 44.2938 17.8496 42.6332 20.352C42.2771 20.899 41.692 21.208 41.3766 20.9598C41.3031 20.8989 41.2459 20.8207 41.2104 20.7322C41.1748 20.6438 41.162 20.5479 41.1731 20.4533C41.1925 20.1718 41.2873 19.9007 41.4479 19.6682C43.137 17.0966 44.9803 14.6287 46.9676 12.278C47.3644 11.8069 47.5221 11.2143 47.2728 10.9408C47.1893 10.8639 47.0846 10.8136 46.9722 10.7964C46.8598 10.7793 46.7448 10.796 46.642 10.8445C46.3706 10.9522 46.1308 11.1265 45.945 11.351C43.3195 14.4562 40.9383 17.7584 38.8228 21.2283C37.1999 23.8976 37.6069 26.3897 38.3141 27.7675C38.6905 28.4868 38.5837 29.6264 38.0648 30.6597C36.3821 33.9879 34.9519 37.4369 33.7864 40.9776C33.6439 41.4183 33.5015 41.8539 33.3692 42.3047C32.4932 42.3127 31.6257 42.1329 30.8257 41.7775C30.0257 41.4221 29.3119 40.8994 28.7327 40.2449C28.1536 39.5904 27.7227 38.8195 27.4694 37.9846C27.216 37.1496 27.1461 36.2701 27.2644 35.4059C29.5384 18.9742 39.9827 6.40737 52.701 5.62732C60.7394 7.69699 67.8761 12.3302 73.0206 18.8188C78.1651 25.3075 81.0344 33.2948 81.19 41.5601C81.19 41.7627 81.19 41.9654 81.19 42.1629L66.1417 42.2085C66.2791 41.8438 66.4215 41.4791 66.569 41.1195C66.691 40.8034 66.9067 40.5318 67.1876 40.3409C67.4684 40.15 67.801 40.0488 68.141 40.0507C69.5655 40.1115 71.4936 39.762 72.4652 38.1614C72.9943 37.2868 73.5522 36.4324 74.139 35.5983Z" fill="url(#paint5_linear_2_3248)"/>
<path d="M43.8134 -0.810791C42.869 -0.810791 41.9632 -0.437231 41.2953 0.22771C40.6275 0.892652 40.2523 1.79451 40.2523 2.73488V6.28055H47.3746V2.73488C47.3746 1.79451 46.9994 0.892652 46.3315 0.22771C45.6637 -0.437231 44.7579 -0.810791 43.8134 -0.810791Z" fill="url(#paint6_linear_2_3248)"/>
<defs>
<linearGradient id="paint0_linear_2_3248" x1="67.4285" y1="58.4493" x2="12.8709" y2="3.97808" gradientUnits="userSpaceOnUse">
<stop stop-color="#FFAB17"/>
<stop offset="0.28" stop-color="#FF8121"/>
<stop offset="0.6" stop-color="#FF572B"/>
<stop offset="0.85" stop-color="#FF3D31"/>
<stop offset="1" stop-color="#FF3333"/>
</linearGradient>
<linearGradient id="paint1_linear_2_3248" x1="49.4171" y1="76.4946" x2="-5.14562" y2="22.0234" gradientUnits="userSpaceOnUse">
<stop stop-color="#FFAB17"/>
<stop offset="0.28" stop-color="#FF8121"/>
<stop offset="0.6" stop-color="#FF572B"/>
<stop offset="0.85" stop-color="#FF3D31"/>
<stop offset="1" stop-color="#FF3333"/>
</linearGradient>
<linearGradient id="paint2_linear_2_3248" x1="61.8643" y1="64.028" x2="7.30673" y2="9.55172" gradientUnits="userSpaceOnUse">
<stop stop-color="#FFAB17"/>
<stop offset="0.28" stop-color="#FF8121"/>
<stop offset="0.6" stop-color="#FF572B"/>
<stop offset="0.85" stop-color="#FF3D31"/>
<stop offset="1" stop-color="#FF3333"/>
</linearGradient>
<linearGradient id="paint3_linear_2_3248" x1="69.2392" y1="56.6411" x2="14.6765" y2="2.16988" gradientUnits="userSpaceOnUse">
<stop stop-color="#FFAB17"/>
<stop offset="0.28" stop-color="#FF8121"/>
<stop offset="0.6" stop-color="#FF572B"/>
<stop offset="0.85" stop-color="#FF3D31"/>
<stop offset="1" stop-color="#FF3333"/>
</linearGradient>
<linearGradient id="paint4_linear_2_3248" x1="78.2424" y1="47.6234" x2="23.6848" y2="-6.85288" gradientUnits="userSpaceOnUse">
<stop stop-color="#FFAB17"/>
<stop offset="0.28" stop-color="#FF8121"/>
<stop offset="0.6" stop-color="#FF572B"/>
<stop offset="0.85" stop-color="#FF3D31"/>
<stop offset="1" stop-color="#FF3333"/>
</linearGradient>
<linearGradient id="paint5_linear_2_3248" x1="54.1862" y1="31.1262" x2="15.4589" y2="2.85713" gradientUnits="userSpaceOnUse">
<stop stop-color="white"/>
<stop offset="0.13" stop-color="#F3BCBC"/>
<stop offset="0.27" stop-color="#E98181"/>
<stop offset="0.38" stop-color="#E15757"/>
<stop offset="0.47" stop-color="#DD3D3D"/>
<stop offset="0.52" stop-color="#DB3333"/>
</linearGradient>
<linearGradient id="paint6_linear_2_3248" x1="83.1625" y1="42.6956" x2="28.5998" y2="-11.7807" gradientUnits="userSpaceOnUse">
<stop stop-color="#FFAB17"/>
<stop offset="0.28" stop-color="#FF8121"/>
<stop offset="0.6" stop-color="#FF572B"/>
<stop offset="0.85" stop-color="#FF3D31"/>
<stop offset="1" stop-color="#FF3333"/>
</linearGradient>
</defs>
</svg>
