<svg width="38" height="20" viewBox="0 0 38 20" fill="none" xmlns="http://www.w3.org/2000/svg">
<path d="M27.4631 15.9439C27.2205 15.6485 27.0743 15.2864 27.0441 14.906C27.0138 14.5256 27.1009 14.1451 27.2937 13.8153C27.5604 13.3791 27.8398 12.9534 28.1404 12.534C28.9299 11.4128 30.3481 11.1768 31.1693 11.9186C31.9906 12.6605 32.0562 13.9291 31.4276 14.829C31.1848 15.1761 30.9527 15.5308 30.7312 15.8933C30.3269 16.5593 29.5247 16.7047 28.932 16.6794C28.7905 16.6786 28.6522 16.7207 28.5353 16.8001C28.4185 16.8796 28.3287 16.9926 28.278 17.1241C28.2166 17.2737 28.1573 17.4254 28.1002 17.5772L34.3612 17.5582C34.3612 17.476 34.3612 17.3917 34.3612 17.3074C34.2651 13.166 32.5336 9.2291 29.542 6.35012C26.5504 3.47113 22.5398 1.88201 18.3794 1.92721C14.2191 1.9724 10.2442 3.64826 7.31643 6.59155C4.38863 9.53484 2.74381 13.5084 2.73846 17.6509L14.4711 17.6172C14.5261 17.4296 14.5854 17.2484 14.6446 17.0651C15.1296 15.5919 15.7246 14.1569 16.4247 12.7721C16.6364 12.3507 16.6851 11.868 16.5284 11.5688C16.2279 10.9956 16.0585 9.95868 16.7401 8.84805C17.6203 7.40438 18.611 6.03045 19.7034 4.73849C19.7807 4.64505 19.8805 4.57255 19.9934 4.52774C20.0362 4.50757 20.084 4.50061 20.1308 4.50775C20.1776 4.51488 20.2211 4.53579 20.2559 4.56779C20.3596 4.68159 20.294 4.92816 20.1289 5.12416C19.3023 6.0995 18.5354 7.12347 17.8323 8.19052C17.7655 8.28725 17.726 8.40006 17.718 8.51718C17.7134 8.55654 17.7187 8.59644 17.7335 8.63324C17.7483 8.67004 17.7721 8.70258 17.8027 8.72792C17.9339 8.83119 18.1773 8.70263 18.3255 8.47503C19.0159 7.42809 19.7694 6.42379 20.5818 5.46767C20.6554 5.37784 20.7519 5.30941 20.8612 5.26957C20.8989 5.25305 20.9401 5.24613 20.9811 5.24944C21.0221 5.25275 21.0617 5.26619 21.0962 5.28854C21.2295 5.38548 21.1766 5.65313 21.0052 5.85545C20.2086 6.79397 19.4692 7.77922 18.7911 8.8059C18.727 8.90034 18.6897 9.0103 18.6832 9.12413C18.6805 9.16477 18.6882 9.20544 18.7056 9.2423C18.723 9.27917 18.7495 9.31102 18.7827 9.33487C18.8195 9.35555 18.8611 9.36642 18.9033 9.36642C18.9456 9.36642 18.9872 9.35555 19.024 9.33487C19.1231 9.28754 19.2079 9.21481 19.2695 9.12413C19.9342 8.11371 20.6601 7.14459 21.4433 6.22215C21.6126 6.0114 21.8666 5.93764 21.9831 6.05566C22.0077 6.08433 22.0254 6.1182 22.035 6.15471C22.0445 6.19123 22.0456 6.22942 22.0381 6.2664C22.0198 6.3757 21.9714 6.47781 21.8984 6.56145C21.1304 7.46547 20.4179 8.41486 19.7648 9.40442C19.623 9.61517 19.6166 9.88071 19.7648 9.95658C19.8002 9.97469 19.8393 9.98414 19.8791 9.98414C19.9189 9.98414 19.9581 9.97469 19.9934 9.95658C20.0911 9.91045 20.1734 9.83729 20.2305 9.74583C20.871 8.77378 21.57 7.84127 22.3238 6.95344C22.4741 6.7743 22.6985 6.69 22.8234 6.77852C22.859 6.8064 22.8861 6.84372 22.9015 6.88621C22.9168 6.92871 22.9198 6.97465 22.9102 7.01877C22.8932 7.12476 22.847 7.22398 22.7768 7.30538C21.8154 8.43775 20.9435 9.64262 20.1691 10.9091C19.9484 11.2877 19.6448 11.6118 19.2809 11.8574C18.917 12.103 18.5022 12.2636 18.0673 12.3275C17.7371 12.3675 17.3878 12.6815 17.2037 13.1136C16.62 14.4966 16.1403 15.921 15.7686 17.3749C15.7495 17.4507 15.7305 17.5224 15.7135 17.5982L21.2761 17.5814C21.3431 17.3574 21.3625 17.122 21.3332 16.8901C21.2091 16.4799 21.0934 16.0584 20.9861 15.6257C20.9489 15.0995 21.0526 14.573 21.2867 14.0999C21.7505 13.1311 22.2721 12.1909 22.8488 11.2843C23.2104 10.7064 23.6998 10.2184 24.2796 9.85752C24.8151 9.53297 25.3528 9.22528 25.8989 8.95342C25.9927 8.89398 26.1025 8.86436 26.2136 8.8685C26.3248 8.87264 26.432 8.91034 26.5212 8.9766C26.7519 9.18735 26.7328 9.58145 26.4788 9.89757C24.6619 12.1953 23.2635 14.7924 22.3471 17.5708L27.1075 17.5561C27.2387 17.2821 27.3742 17.0124 27.5139 16.7447C27.5791 16.6192 27.6088 16.4784 27.5999 16.3373C27.5909 16.1962 27.5436 16.0603 27.4631 15.9439Z" fill="url(#paint0_linear_2_3625)"/>
<path d="M0.64516 18.7366C0.646838 19.0217 0.761756 19.2945 0.964812 19.4955C1.16787 19.6965 1.44256 19.8093 1.72889 19.8093L13.8912 19.7735C14.0563 19.0471 14.2496 18.3291 14.4711 17.6196L1.72254 17.6555C1.58042 17.6557 1.43975 17.6839 1.30861 17.7385C1.17747 17.793 1.05843 17.8728 0.958336 17.9732C0.858237 18.0737 0.779044 18.1928 0.725301 18.3238C0.671558 18.4548 0.644324 18.5951 0.64516 18.7366Z" fill="url(#paint1_linear_2_3625)"/>
<path d="M15.25 19.7693L20.5543 19.7546C20.6644 19.3668 20.7808 18.9811 20.9078 18.6018C21.0073 18.2983 21.1195 17.9969 21.2274 17.6998C21.2399 17.6667 21.2505 17.6329 21.2592 17.5986L15.6966 17.6155C15.5252 18.3257 15.377 19.0465 15.25 19.7693Z" fill="url(#paint2_linear_2_3625)"/>
<path d="M21.9407 18.8987C21.8645 19.1811 21.7926 19.4656 21.7291 19.7417L26.2079 19.7291C26.4679 18.9979 26.7668 18.2811 27.1032 17.5815L22.3429 17.5963C22.1884 18.0262 22.0593 18.4625 21.9407 18.8987Z" fill="url(#paint3_linear_2_3625)"/>
<path d="M36.7658 17.8659C36.6655 17.7634 36.5452 17.6824 36.4124 17.6276C36.2796 17.5729 36.1369 17.5457 35.9932 17.5477L28.0875 17.5709C27.8155 18.2752 27.5837 18.9943 27.3932 19.7247L35.9996 19.6994C36.2136 19.6987 36.4226 19.6348 36.6002 19.5158C36.7777 19.3968 36.9158 19.2279 36.997 19.0307C37.0781 18.8335 37.0986 18.6167 37.056 18.4079C37.0133 18.1991 36.9094 18.0075 36.7573 17.8575L36.7658 17.8659Z" fill="url(#paint4_linear_2_3625)"/>
<path style="mix-blend-mode:multiply" d="M31.4233 14.8292C32.0583 13.9294 31.9885 12.6607 31.1651 11.9188C30.3417 11.177 28.9257 11.413 28.1361 12.5342C27.8398 12.9557 27.5604 13.3772 27.2895 13.8156C27.0967 14.1453 27.0095 14.5258 27.0398 14.9062C27.0701 15.2866 27.2163 15.6487 27.4588 15.9441C27.5419 16.0642 27.5895 16.205 27.5963 16.3507C27.603 16.4963 27.5686 16.641 27.4969 16.7681C27.3572 17.0358 27.2218 17.3055 27.0905 17.5795L22.3302 17.5942C23.2485 14.8153 24.6491 12.2183 26.4682 9.92096C26.718 9.60484 26.7413 9.20232 26.5106 9C26.4214 8.93374 26.3142 8.89603 26.203 8.89189C26.0919 8.88775 25.9821 8.91737 25.8883 8.97682C25.3422 9.255 24.8045 9.55637 24.269 9.88092C23.6892 10.2418 23.1998 10.7298 22.8382 11.3077C22.2615 12.2143 21.7399 13.1545 21.2761 14.1232C21.038 14.596 20.9306 15.1234 20.9649 15.6512C21.0708 16.0727 21.1865 16.4941 21.3121 16.9156C21.3413 17.1475 21.3219 17.3829 21.2549 17.6069L15.6924 17.6237C16.069 16.0936 16.5643 14.5949 17.174 13.1412C17.3582 12.7197 17.7074 12.3951 18.0376 12.3551C18.4725 12.2913 18.8874 12.1306 19.2513 11.885C19.6152 11.6394 19.9188 11.3153 20.1394 10.9368C20.9139 9.67023 21.7857 8.46536 22.7472 7.33299C22.8174 7.25159 22.8636 7.15237 22.8805 7.04638C22.8902 7.00226 22.8872 6.95632 22.8718 6.91383C22.8565 6.87133 22.8294 6.834 22.7937 6.80613C22.6688 6.71761 22.4445 6.80613 22.2942 6.98105C21.5404 7.86888 20.8413 8.80139 20.2008 9.77344C20.1438 9.8649 20.0615 9.93806 19.9638 9.98419C19.9284 10.0023 19.8892 10.0118 19.8495 10.0118C19.8097 10.0118 19.7705 10.0023 19.7352 9.98419C19.5891 9.90832 19.5955 9.64699 19.7352 9.43203C20.3944 8.44195 21.1132 7.49255 21.8878 6.58906C21.9608 6.50542 22.0092 6.40331 22.0275 6.29401C22.035 6.25703 22.0339 6.21884 22.0244 6.18232C22.0148 6.14581 21.9971 6.11194 21.9725 6.08327C21.856 5.96525 21.602 6.04955 21.4327 6.24976C20.6496 7.1722 19.9236 8.14132 19.2589 9.15174C19.1973 9.24242 19.1125 9.31515 19.0134 9.36248C18.9766 9.38317 18.935 9.39403 18.8927 9.39403C18.8505 9.39403 18.8089 9.38317 18.7721 9.36248C18.7389 9.33863 18.7124 9.30678 18.695 9.26991C18.6776 9.23305 18.6699 9.19238 18.6726 9.15174C18.6791 9.03791 18.7164 8.92795 18.7805 8.83351C19.4586 7.80684 20.198 6.82158 20.9946 5.88306C21.166 5.67231 21.2189 5.41309 21.0856 5.31615C21.0511 5.2938 21.0115 5.28036 20.9705 5.27705C20.9295 5.27374 20.8883 5.28066 20.8506 5.29718C20.7413 5.33702 20.6448 5.40545 20.5712 5.49528C19.7593 6.44596 19.0058 7.44461 18.3149 8.48578C18.1667 8.71338 17.9233 8.84194 17.7921 8.73867C17.7615 8.71333 17.7377 8.68079 17.7229 8.64399C17.7081 8.60719 17.7028 8.56729 17.7074 8.52793C17.7154 8.41081 17.7549 8.298 17.8217 8.20127C18.5245 7.13134 19.2914 6.10455 20.1183 5.12648C20.2834 4.93048 20.349 4.68391 20.2453 4.57011C20.2105 4.53811 20.167 4.5172 20.1202 4.51006C20.0734 4.50293 20.0256 4.5099 19.9828 4.53007C19.8699 4.57488 19.7701 4.64737 19.6928 4.74081C18.6004 6.03277 17.6097 7.4067 16.7295 8.85037C16.0543 9.961 16.2236 10.9979 16.5178 11.5711C16.6745 11.8704 16.63 12.3445 16.4141 12.7745C15.714 14.1592 15.119 15.5942 14.634 17.0674C14.5748 17.2507 14.5155 17.432 14.4605 17.6195C14.096 17.6229 13.7351 17.548 13.4022 17.4002C13.0693 17.2523 12.7724 17.0348 12.5314 16.7625C12.2904 16.4902 12.1112 16.1695 12.0058 15.8221C11.9003 15.4747 11.8713 15.1087 11.9205 14.7492C12.8666 7.91255 17.2121 2.68392 22.5037 2.35938C25.8482 3.22049 28.8176 5.14819 30.958 7.8479C33.0984 10.5476 34.2922 13.8708 34.357 17.3097C34.357 17.394 34.357 17.4783 34.357 17.5605L28.0959 17.5795C28.1531 17.4278 28.2123 17.276 28.2737 17.1264C28.3245 16.9949 28.4142 16.8819 28.5311 16.8025C28.6479 16.723 28.7863 16.6809 28.9278 16.6817C29.5204 16.707 30.3226 16.5616 30.7269 15.8956C30.9471 15.5317 31.1792 15.1763 31.4233 14.8292Z" fill="url(#paint5_linear_2_3625)"/>
<path d="M18.806 -0.319336C18.413 -0.319336 18.0362 -0.163911 17.7583 0.112747C17.4804 0.389406 17.3243 0.764636 17.3243 1.15589V2.63112H20.2877V1.15589C20.2877 0.764636 20.1315 0.389406 19.8537 0.112747C19.5758 -0.163911 19.199 -0.319336 18.806 -0.319336Z" fill="url(#paint6_linear_2_3625)"/>
<defs>
<linearGradient id="paint0_linear_2_3625" x1="28.6314" y1="24.3367" x2="5.93186" y2="1.67311" gradientUnits="userSpaceOnUse">
<stop stop-color="#FFAB17"/>
<stop offset="0.28" stop-color="#FF8121"/>
<stop offset="0.6" stop-color="#FF572B"/>
<stop offset="0.85" stop-color="#FF3D31"/>
<stop offset="1" stop-color="#FF3333"/>
</linearGradient>
<linearGradient id="paint1_linear_2_3625" x1="21.1375" y1="31.8448" x2="-1.56408" y2="9.1813" gradientUnits="userSpaceOnUse">
<stop stop-color="#FFAB17"/>
<stop offset="0.28" stop-color="#FF8121"/>
<stop offset="0.6" stop-color="#FF572B"/>
<stop offset="0.85" stop-color="#FF3D31"/>
<stop offset="1" stop-color="#FF3333"/>
</linearGradient>
<linearGradient id="paint2_linear_2_3625" x1="26.3163" y1="26.6579" x2="3.61685" y2="3.99222" gradientUnits="userSpaceOnUse">
<stop stop-color="#FFAB17"/>
<stop offset="0.28" stop-color="#FF8121"/>
<stop offset="0.6" stop-color="#FF572B"/>
<stop offset="0.85" stop-color="#FF3D31"/>
<stop offset="1" stop-color="#FF3333"/>
</linearGradient>
<linearGradient id="paint3_linear_2_3625" x1="29.3848" y1="23.5843" x2="6.68316" y2="0.920771" gradientUnits="userSpaceOnUse">
<stop stop-color="#FFAB17"/>
<stop offset="0.28" stop-color="#FF8121"/>
<stop offset="0.6" stop-color="#FF572B"/>
<stop offset="0.85" stop-color="#FF3D31"/>
<stop offset="1" stop-color="#FF3333"/>
</linearGradient>
<linearGradient id="paint4_linear_2_3625" x1="33.1307" y1="19.8324" x2="10.4312" y2="-2.83328" gradientUnits="userSpaceOnUse">
<stop stop-color="#FFAB17"/>
<stop offset="0.28" stop-color="#FF8121"/>
<stop offset="0.6" stop-color="#FF572B"/>
<stop offset="0.85" stop-color="#FF3D31"/>
<stop offset="1" stop-color="#FF3333"/>
</linearGradient>
<linearGradient id="paint5_linear_2_3625" x1="23.1217" y1="12.9686" x2="7.00864" y2="1.2068" gradientUnits="userSpaceOnUse">
<stop stop-color="white"/>
<stop offset="0.13" stop-color="#F3BCBC"/>
<stop offset="0.27" stop-color="#E98181"/>
<stop offset="0.38" stop-color="#E15757"/>
<stop offset="0.47" stop-color="#DD3D3D"/>
<stop offset="0.52" stop-color="#DB3333"/>
</linearGradient>
<linearGradient id="paint6_linear_2_3625" x1="35.1777" y1="17.7821" x2="12.4761" y2="-4.88353" gradientUnits="userSpaceOnUse">
<stop stop-color="#FFAB17"/>
<stop offset="0.28" stop-color="#FF8121"/>
<stop offset="0.6" stop-color="#FF572B"/>
<stop offset="0.85" stop-color="#FF3D31"/>
<stop offset="1" stop-color="#FF3333"/>
</linearGradient>
</defs>
</svg>
